<svg t="1690458210146" class="icon" viewBox="0 0 1024 1024" version="1.1" xmlns="http://www.w3.org/2000/svg" p-id="8176" width="200" height="200"><path d="M0 0m36.562636 0l950.874728 0q36.562636 0 36.562636 36.562636l0 950.874728q0 36.562636-36.562636 36.562636l-950.874728 0q-36.562636 0-36.562636-36.562636l0-950.874728q0-36.562636 36.562636-36.562636Z" fill="#0D71E4" p-id="8177"></path><path d="M36.562636 0h950.873667C1007.629795 0 1024 16.370205 1024 36.562636v914.294052H0V36.562636C0 16.370205 16.370205 0 36.562636 0z" fill="#000000" p-id="8178"></path><path d="M146.285563 585.143312h438.856688v109.714437H146.285563zM146.285563 365.714437h329.143312v109.714438H146.285563zM146.285563 146.285563h512V256h-512z" fill="#FFFFFF" p-id="8179"></path></svg>
