<svg xmlns="http://www.w3.org/2000/svg" xmlns:xlink="http://www.w3.org/1999/xlink" width="246" height="80"
     viewBox="0 0 80 80">
    <defs>
        <rect id="a" width="80" height="80" x="0" y="0" rx="16"/>
        <rect id="c" width="80" height="80" x="0" y="0"/>
    </defs>
    <g fill="none" fill-rule="evenodd">
        <mask id="b" fill="#fff">
            <use xlink:href="#a"/>
        </mask>
        <use xlink:href="#a" fill="#D8D8D8"/>
        <g mask="url(#b)">
            <mask id="d" fill="#fff">
                <use xlink:href="#c"/>
            </mask>
            <use xlink:href="#c" fill="#FFF"/>
            <path fill="#2777F8" fill-rule="nonzero"
                  d="M59.9409692,8.0001233 C60.1436383,7.99648447 60.3394779,8.07351498 60.4852694,8.21434758 C60.6310609,8.35518019 60.7148198,8.54823805 60.7180645,8.75091631 C60.7180645,8.8208694 60.7075648,8.89042684 60.6863436,8.95708371 C60.6607199,9.04511122 60.6188872,9.12758129 60.5629956,9.20025551 L57.5955947,15.0152335 L57.5198238,15.1650132 C56.7758347,16.459549 55.3935159,17.2543486 53.9004405,17.2460705 L36.6986784,17.2460705 C35.010833,17.2348315 33.4858228,18.2512725 32.846696,19.8134714 L30.1612335,25.131533 C30.1612335,25.131533 33.1949856,25.6943655 36.246267,26.4088026 L36.7689527,26.5326859 C37.4645952,26.6996392 38.1521488,26.8732854 38.7955947,27.0487137 L38.8061674,27.0504758 C57.660793,32.1852775 61.6837004,49.4416652 54.4889868,60.2769075 C49.9321586,67.1491542 41.3136564,71.8962908 30.2352423,71.5544405 C23.7488987,71.3535595 19.2431718,68.6152335 19.2431718,68.6152335 C19.2431718,68.6152335 22.90837,69.3870397 28.4273128,68.6152335 C36.2845815,67.4575242 46.2757709,62.6434273 46.9911894,51.9403436 C47.3629956,46.4178767 43.7189427,41.2760264 37.8933921,37.7359383 C33.8387665,35.2725022 28.0044053,33.8275683 23.0704846,33.0663348 C22.9207048,33.0416652 17.3911894,32.3967313 17.3911894,32.3967313 L28.0731278,10.9993745 C28.8565077,9.88992977 30.1317344,9.23225742 31.4898678,9.23725992 L53.7189427,9.23725992 C55.7262597,9.20940749 57.7121482,8.82022825 59.5814978,8.08836124 L59.7295154,8.03021146 C59.7984851,8.01149621 59.8695151,8.00143363 59.9409692,8.0001233 Z M38.4167401,46.1799912 L39.2202643,46.2134714 L39.2202643,49.1597269 L41.0299559,49.1597269 L41.0299559,49.899815 L39.2202643,49.899815 L39.2202643,50.8707401 L41.4193833,50.8707401 L41.4193833,51.6337357 L39.2202643,51.6337357 L39.2202643,53.5579648 L38.4167401,53.5579648 L38.4167401,51.6337357 L36.3022026,51.6337357 L36.3022026,50.8707401 L38.4167401,50.8707401 L38.4167401,49.899815 L36.7462555,49.899815 L36.7462555,49.1597269 L38.4167401,49.1597269 L38.4167401,46.1799912 Z M26.9894273,46.2205198 L27.7118943,46.254 L27.7118943,47.6901234 L28.6528634,47.6901234 L28.6528634,48.4443084 L27.7118943,48.4443084 L27.7118943,49.3940881 L27.9638767,49.1438678 C28.3031215,49.4952671 28.6147648,49.8723024 28.8960352,50.2716212 L28.8960352,46.683956 L32.6140969,46.683956 L32.6140969,53.4962908 L31.8264317,53.4962908 L29.6696035,53.5209604 L28.8977974,53.5209604 L28.8977974,50.4178767 L28.4431718,50.9042203 C28.2256539,50.555967 27.9817681,50.2248949 27.7136564,49.9139119 L27.7136564,53.5332952 L26.9894273,53.5332952 L26.9894273,50.1729427 C26.7509321,50.7370851 26.4557301,51.2755335 26.10837,51.7799912 L25.5955947,51.1791101 C25.8845956,50.7731867 26.1375417,50.3427657 26.3515419,49.8927665 C26.5810752,49.4257052 26.773733,48.9414095 26.9277533,48.4443084 L25.985022,48.4443084 L25.985022,47.6901234 L26.9894273,47.6901234 L26.9894273,46.2205198 Z M35.8,46.269859 L36.6,46.4813128 C36.4288032,47.0176913 36.2251981,47.5431809 35.9903084,48.0548811 L35.9903084,53.5174361 L35.1797357,53.5174361 L35.1797357,49.5174361 C35.0070485,49.7817533 34.7720999,50.1089192 34.4748899,50.4989339 L33.9462555,49.7940881 C34.3492275,49.2710286 34.7087236,48.7158723 35.0211454,48.1341762 C35.3428972,47.5405579 35.6038409,46.9159461 35.8,46.269859 Z M20.8114537,46.2134714 L21.6555066,46.2451894 L21.6555066,47.7394626 L24.2511013,47.7394626 L24.2511013,48.5183172 L21.6519824,48.5183172 L21.6519824,49.9544405 L23.9797357,49.9544405 L23.9797357,50.7174361 L21.6519824,50.7174361 L21.6519824,52.4548811 L24.6299559,52.4548811 L24.6299559,53.2249251 L17.6837004,53.2249251 L17.6837004,52.4548811 L20.8079295,52.4548811 L20.8079295,50.7174361 L18.4537445,50.7174361 L18.4537445,49.9544405 L20.8079295,49.9544405 L20.8079295,48.5183172 L19.1198238,48.5183172 C18.8851637,49.0444642 18.605103,49.5491631 18.2828194,50.0266872 L17.5603524,49.5808723 C17.8873966,49.1268147 18.1689314,48.6416542 18.4008811,48.1324141 C18.6369813,47.6058522 18.8233998,47.0583953 18.9577093,46.4971718 L19.7647577,46.6927665 C19.6707783,47.0275683 19.5597651,47.376467 19.4317181,47.7394626 L20.8114537,47.7394626 L20.8114537,46.2134714 Z M31.8264317,51.4064229 L29.6696035,51.4064229 L29.6678414,52.7702996 L31.8264317,52.7702996 L31.8264317,51.4064229 Z M31.8264317,49.4117093 L29.6696035,49.4117093 L29.6696035,50.7808723 L31.8281938,50.7808723 L31.8264317,49.4117093 Z M40.4731278,46.6363789 L41.169163,47.0011366 C41.082232,47.223163 40.9400881,47.5285962 40.7427313,47.9174361 C40.5453744,48.3062761 40.3732746,48.6258062 40.2264317,48.8760264 L39.5215859,48.5095066 C39.6837004,48.2504758 39.8581498,47.9368194 40.0502203,47.5685375 C40.2422907,47.2002555 40.3744493,46.8901234 40.4731278,46.6363789 Z M37.2555066,46.6628106 C37.3911894,46.8795507 37.5462555,47.1597269 37.722467,47.5068634 C37.8986784,47.854 38.0396476,48.1588458 38.1488987,48.423163 L37.4845815,48.8513568 C37.3806167,48.5976123 37.2361233,48.2857181 37.045815,47.9174361 C36.8956533,47.6156272 36.7303927,47.3215693 36.5506608,47.0363789 L37.2555066,46.6628106 Z M31.8264317,47.4117093 L29.6696035,47.4117093 L29.6696035,48.7755859 L31.8281938,48.7755859 L31.8264317,47.4117093 Z M51.3947204,20.699815 L51.3947204,21.5174361 L47.5885463,21.5262467 L47.5885463,22.4566432 L51.1603524,22.4566432 C51.2228154,22.4566414 51.2826947,22.4815747 51.326697,22.5259078 C51.3706992,22.5702409 51.3951833,22.6303053 51.3947204,22.6927665 L51.3947204,25.1068634 C51.3951874,25.1691639 51.3706481,25.2290503 51.3265937,25.2731047 C51.2825393,25.3171591 51.2226529,25.3416985 51.1603524,25.3412314 L46.7726872,25.3412314 L46.7726872,24.5253656 L50.5788546,24.5253656 L50.5788546,23.2636916 L46.7726872,23.2636916 L46.7726872,20.699815 L51.3947204,20.699815 Z M52.7814978,24.5253618 C53.0046428,24.5263358 53.185022,24.7075049 53.185022,24.930652 C53.185022,25.094735 53.0860839,25.2426274 52.9344223,25.3052534 C52.7827607,25.3678793 52.6083025,25.3328806 52.4925313,25.2166038 C52.3767601,25.1003271 52.3425218,24.925718 52.405808,24.7743307 C52.4690942,24.6229435 52.6174163,24.5246522 52.7814978,24.5253618 Z M64.2193833,20.699815 C64.2823136,20.699815 64.3426411,20.7249322 64.3869738,20.7695957 C64.4313065,20.8142593 64.4559762,20.8747719 64.4555132,20.9377004 L64.4555132,25.0962908 C64.4559762,25.1592193 64.4313065,25.2197319 64.3869738,25.2643955 C64.3426411,25.309059 64.2823136,25.3341762 64.2193833,25.3341762 L60.0696035,25.3341762 C60.0066732,25.3341762 59.9463457,25.309059 59.902013,25.2643955 C59.8576803,25.2197319 59.8330105,25.1592193 59.8334736,25.0962908 L59.8334736,20.9377004 C59.8330105,20.8747719 59.8576803,20.8142593 59.902013,20.7695957 C59.9463457,20.7249322 60.0066732,20.699815 60.0696035,20.699815 Z M45.4563877,20.7103877 L45.4563877,25.3324141 L44.6405286,25.3324141 L44.6405286,21.5262467 L44.1964758,21.5262467 L44.1189427,20.7103877 L45.4563877,20.7103877 Z M58.6634361,20.7209604 L58.6634361,21.5297709 L54.8572687,21.5297709 L54.8572687,24.5253656 L58.6634361,24.5253656 L58.6634361,25.330652 L54.277533,25.330652 C54.1471257,25.330652 54.0414097,25.224936 54.0414097,25.0945286 L54.0414097,20.9570837 C54.0414097,20.8266764 54.1471257,20.7209604 54.277533,20.7209604 L58.6634361,20.7209604 Z M42.9400881,20.699815 L42.9400881,25.3236035 L42.122467,25.3236035 L42.122467,21.5174361 L41.6801762,21.5174361 L41.6026432,20.699815 L42.9400881,20.699815 Z M63.6414097,21.5297709 L60.645815,21.5297709 L60.645815,24.5253656 L63.6414097,24.5253656 L63.6414097,21.5297709 Z M70.0660793,20.7103813 L69.585022,20.7103813 C69.5189823,20.7099129 69.4555096,20.7359367 69.4088106,20.7826344 L67.9286344,22.2821938 L66.4484581,20.7861586 C66.4015401,20.739791 66.3382106,20.7138259 66.2722467,20.7139119 L65.8088106,20.7139119 C65.7440126,20.7134423 65.6817073,20.7388547 65.6357219,20.7845093 C65.5897365,20.8301638 65.5638767,20.8922841 65.5638767,20.9570837 L65.5638767,25.3359383 L66.3814978,25.3359383 L66.3814978,21.8821938 L67.9356828,23.4680969 L69.4845815,21.8821938 L69.4845815,25.3429868 L70.3092511,25.3429868 L70.3092511,20.9535595 C70.3092511,20.8192594 70.2003794,20.7103813 70.0660793,20.7103813 M9,49.1755859 L16.1735683,49.1755859 L16.1735683,50.084837 L9,50.084837 Z"
                  mask="url(#d)"/>
        </g>
        <rect width="79" height="79" x=".5" y=".5" stroke="#000" stroke-opacity=".08" rx="16"/>
    </g>
</svg>